<?xml version="1.0" encoding="utf-8"?>
<svg width="256" height="64" viewBox="0 0 256 64" fill="none" stroke="none" version="1.1" xmlns:xlink="http://www.w3.org/1999/xlink" xmlns="http://www.w3.org/2000/svg">
  <defs>
    <rect id="rect_1" x="0" y="0" width="248" height="62" />
    <clipPath id="clip_path_2">
      <use xlink:href="#rect_1" />
    </clipPath>
  </defs>
  <g id="Group">
    <g style="mix-blend-mode:normal;">
      <rect id="Rectangle" width="256" height="64" />
      <path d="M0 64L0 0L256 0L256 4L8 4L8 60L256 60L256 64L0 64Z" fill-rule="evenodd" style="fill:#000077;fill-rule:evenodd;" />
    </g>
    <g clip-path="url(#clip_path_2)" style="mix-blend-mode:normal;" transform="translate(8 8.2)">
      <path d="M5.88 31.4L0.92 31.4L0.92 32.16Q0.92 33.72 1.28 34.98Q1.64 36.24 2.54 37.12Q3.44 38 4.98 38.44Q6.52 38.88 8.84 38.88Q10.6 38.88 12.06 38.52Q13.52 38.16 14.58 37.32Q15.64 36.48 16.24 35.22Q16.84 33.96 16.84 32.24Q16.84 29.8 15.76 28.38Q14.68 26.96 12.08 26.08L8.76 24.96Q7.36 24.52 6.86 23.88Q6.36 23.24 6.36 22.44Q6.36 21.28 7.14 20.7Q7.92 20.12 8.96 20.12Q10.32 20.12 10.86 20.9Q11.4 21.68 11.4 23.36L16.36 23.36L16.36 22.48Q16.36 19.56 14.56 17.96Q12.76 16.36 9 16.36Q6.88 16.36 5.38 16.88Q3.88 17.4 2.92 18.28Q1.96 19.16 1.52 20.34Q1.08 21.52 1.08 22.84Q1.08 25.12 2.24 26.58Q3.4 28.04 5.68 28.84L9.56 30.24Q10.36 30.56 10.96 31.1Q11.56 31.64 11.56 32.68Q11.56 33.96 10.8 34.6Q10.04 35.24 8.76 35.24Q7.36 35.24 6.62 34.38Q5.88 33.52 5.88 32.12L5.88 31.4ZM28.4 27.68Q28.4 26.04 28.48 24.64Q28.56 23.24 28.86 22.24Q29.16 21.24 29.76 20.68Q30.36 20.12 31.36 20.12Q33.04 20.12 33.68 21.88Q34.32 23.64 34.32 27.68Q34.32 31.72 33.68 33.48Q33.04 35.24 31.36 35.24Q30.36 35.24 29.76 34.68Q29.16 34.12 28.86 33.12Q28.56 32.12 28.48 30.72Q28.4 29.32 28.4 27.68ZM22.88 27.68Q22.88 30.48 23.28 32.62Q23.68 34.76 24.64 36.18Q25.6 37.6 27.24 38.26Q28.88 38.92 31.36 38.88Q33.72 38.88 35.34 38.2Q36.96 37.52 37.96 36.1Q38.96 34.68 39.4 32.56Q39.84 30.44 39.84 27.68Q39.84 24.84 39.44 22.72Q39.04 20.6 38.08 19.16Q37.12 17.72 35.48 17.02Q33.84 16.32 31.36 16.36Q29 16.36 27.38 17.1Q25.76 17.84 24.76 19.26Q23.76 20.68 23.32 22.8Q22.88 24.92 22.88 27.68ZM46.8 16.92L46.8 38.44L52.32 38.44L52.32 25.52Q52.32 24.44 52.68 23.7Q53.04 22.96 53.64 22.5Q54.24 22.04 54.96 21.84Q55.68 21.64 56.4 21.64Q56.84 21.64 57.26 21.66Q57.68 21.68 58.12 21.72L58.12 16.44Q57.88 16.4 57.62 16.38Q57.36 16.36 57.12 16.36Q55.4 16.36 54.2 17.3Q53 18.24 52.16 19.8L52.08 19.8L52.08 16.92L46.8 16.92ZM65.32 10.76L65.32 16.92L62.52 16.92L62.52 20.68L65.32 20.68L65.32 33Q65.32 34.64 65.52 35.72Q65.72 36.8 66.26 37.46Q66.8 38.12 67.82 38.34Q68.84 38.56 70.44 38.56Q71.4 38.56 72.26 38.5C72.8333 38.46 73.4267 38.44 74.04 38.44L74.04 34.6Q73.76 34.64 73.44 34.66Q73.12 34.68 72.8 34.68Q71.6 34.68 71.22 34.14Q70.84 33.6 70.84 32.32L70.84 20.68L74.04 20.68L74.04 16.92L70.84 16.92L70.84 10.76L65.32 10.76ZM80.16 9.56L80.16 14.28L85.68 14.28L85.68 9.56L80.16 9.56ZM80.16 16.92L80.16 38.44L85.68 38.44L85.68 16.92L80.16 16.92ZM93.56 16.92L93.56 38.44L99.08 38.44L99.08 25.52Q99.08 24.44 99.44 23.7Q99.8 22.96 100.4 22.5Q101 22.04 101.72 21.84Q102.44 21.64 103.16 21.64Q103.6 21.64 104.02 21.66Q104.44 21.68 104.88 21.72L104.88 16.44Q104.64 16.4 104.38 16.38Q104.12 16.36 103.88 16.36Q102.16 16.36 100.96 17.3Q99.76 18.24 98.92 19.8L98.84 19.8L98.84 16.92L93.56 16.92ZM113.52 32.2L108.24 32.2L108.24 38.44L113.52 38.44L113.52 32.2ZM131.88 24.68L137.16 24.68Q137.16 20.84 135.22 18.6Q133.28 16.36 129.44 16.36Q127.52 16.36 125.92 16.88Q124.32 17.4 123.16 18.7Q122 20 121.36 22.18Q120.72 24.36 120.72 27.68Q120.72 30.92 121.24 33.1Q121.76 35.28 122.78 36.58Q123.8 37.88 125.34 38.38Q126.88 38.88 128.96 38.88Q133.36 38.88 135.26 36.66Q137.16 34.44 137.16 30.2L131.88 30.2Q131.88 32.84 131.24 34.04Q130.6 35.24 129.2 35.24Q128.28 35.24 127.7 34.82Q127.12 34.4 126.8 33.48Q126.48 32.56 126.36 31.14Q126.24 29.72 126.24 27.72Q126.24 25.84 126.36 24.46Q126.48 23.08 126.8 22.18Q127.12 21.28 127.76 20.82Q128.4 20.36 129.4 20.36Q130.2 20.36 130.68 20.74Q131.16 21.12 131.42 21.74Q131.68 22.36 131.78 23.12Q131.88 23.88 131.88 24.68ZM148.84 27.68Q148.84 26.04 148.92 24.64Q149 23.24 149.3 22.24Q149.6 21.24 150.2 20.68Q150.8 20.12 151.8 20.12Q153.48 20.12 154.12 21.88Q154.76 23.64 154.76 27.68Q154.76 31.72 154.12 33.48Q153.48 35.24 151.8 35.24Q150.8 35.24 150.2 34.68Q149.6 34.12 149.3 33.12Q149 32.12 148.92 30.72Q148.84 29.32 148.84 27.68ZM143.32 27.68Q143.32 30.48 143.72 32.62Q144.12 34.76 145.08 36.18Q146.04 37.6 147.68 38.26Q149.32 38.92 151.8 38.88Q154.16 38.88 155.78 38.2Q157.4 37.52 158.4 36.1Q159.4 34.68 159.84 32.56Q160.28 30.44 160.28 27.68Q160.28 24.84 159.88 22.72Q159.48 20.6 158.52 19.16Q157.56 17.72 155.92 17.02Q154.28 16.32 151.8 16.36Q149.44 16.36 147.82 17.1Q146.2 17.84 145.2 19.26Q144.2 20.68 143.76 22.8Q143.32 24.92 143.32 27.68ZM167.24 16.92L167.24 38.44L172.76 38.44L172.76 24.28Q172.76 22.36 173.54 21.48Q174.32 20.6 175.64 20.6Q176.8 20.6 177.3 21.32Q177.8 22.04 177.8 23.4L177.8 38.44L183.32 38.44L183.32 24.28Q183.32 22.36 184.1 21.48Q184.88 20.6 186.2 20.6Q187.36 20.6 187.86 21.32Q188.36 22.04 188.36 23.4L188.36 38.44L193.88 38.44L193.88 22.8Q193.88 19.68 192.58 18.02Q191.28 16.36 188.52 16.36Q186.56 16.36 185.14 17.22Q183.72 18.08 183.08 19.8L183 19.8Q182.56 18.12 181.26 17.24Q179.96 16.36 178.04 16.36Q176.24 16.36 174.94 17Q173.64 17.64 172.6 19.12L172.52 19.12L172.52 16.92L167.24 16.92Z" transform="translate(24.14 0)" style="fill:#000077;" />
    </g>
  </g>
</svg>